<svg width="624" height="173" xmlns="http://www.w3.org/2000/svg" xmlns:xlink="http://www.w3.org/1999/xlink" xml:space="preserve" overflow="hidden"><defs><clipPath id="clip0"><rect x="0" y="0" width="624" height="173"/></clipPath></defs><g clip-path="url(#clip0)"><path d="M0 0 624 0 624 172.714 0 172.714Z" fill="#FFFFFF" fill-rule="nonzero" fill-opacity="1" transform="scale(1 1.00165)"/><path d="M38.4053 19.1518 38.4053 18.3586C39.1076 17.6798 39.7114 17.076 40.2167 16.5471 40.7296 16.0104 41.1245 15.525 41.4006 15.0909 41.6767 14.6489 41.815 14.2385 41.815 13.8596 41.815 13.465 41.7084 13.1493 41.4953 12.9125 41.2822 12.6757 40.9744 12.5573 40.5718 12.5573 40.2797 12.5573 40.0116 12.6402 39.7668 12.8059 39.53 12.9717 39.3089 13.169 39.1038 13.3979L38.3461 12.6402C38.6932 12.2692 39.0526 11.9851 39.4234 11.7878 39.7943 11.5825 40.2365 11.4799 40.7494 11.4799 41.4755 11.4799 42.0518 11.6891 42.478 12.1074 42.9122 12.5257 43.1291 13.0861 43.1291 13.7886 43.1291 14.2306 43.0027 14.6844 42.7503 15.1501 42.5055 15.6079 42.174 16.0775 41.7558 16.559 41.3452 17.0405 40.8915 17.5456 40.3942 18.0744 40.5917 18.0586 40.8048 18.0428 41.0336 18.0271 41.2624 18.0034 41.4678 17.9915 41.6492 17.9915L43.4961 17.9915 43.4961 19.1518 38.4053 19.1518ZM47.0563 19.2939C46.2749 19.2939 45.6512 18.9545 45.1857 18.2757 44.7278 17.5969 44.499 16.6221 44.499 15.3514 44.499 14.0806 44.7278 13.1177 45.1857 12.4626 45.6512 11.8075 46.2749 11.4799 47.0563 11.4799 47.8377 11.4799 48.4572 11.8075 48.9151 12.4626 49.3806 13.1177 49.6136 14.0806 49.6136 15.3514 49.6136 16.6221 49.3806 17.5969 48.9151 18.2757 48.4572 18.9545 47.8377 19.2939 47.0563 19.2939ZM47.0563 18.2283C47.3007 18.2283 47.518 18.1375 47.7074 17.956 47.8969 17.7666 48.0428 17.4627 48.1455 17.0444 48.2559 16.6261 48.3113 16.0617 48.3113 15.3514 48.3113 14.641 48.2559 14.0806 48.1455 13.6702 48.0428 13.2598 47.8969 12.9717 47.7074 12.8059 47.518 12.6323 47.3007 12.5455 47.0563 12.5455 46.8195 12.5455 46.6064 12.6323 46.417 12.8059 46.2275 12.9717 46.0775 13.2598 45.9671 13.6702 45.8563 14.0806 45.8013 14.641 45.8013 15.3514 45.8013 16.0617 45.8563 16.6261 45.9671 17.0444 46.0775 17.4627 46.2275 17.7666 46.417 17.956 46.6064 18.1375 46.8195 18.2283 47.0563 18.2283ZM50.9713 19.1518 50.9713 18.0389 52.6524 18.0389 52.6524 13.0901 51.2672 13.0901 51.2672 12.2376C51.6384 12.1666 51.9619 12.0837 52.2381 11.989 52.5145 11.8864 52.7708 11.7641 53.0076 11.622L54.0258 11.622 54.0258 18.0389 55.5057 18.0389 55.5057 19.1518 50.9713 19.1518ZM59.2079 19.2939C58.7187 19.2939 58.2806 19.207 57.8938 19.0334 57.5069 18.8519 57.2033 18.6072 56.9821 18.2994 56.761 17.9915 56.6506 17.6324 56.6506 17.222 56.6506 16.7563 56.7889 16.3656 57.065 16.0499 57.3411 15.7342 57.657 15.4816 58.0122 15.2922L58.0122 15.2448C57.72 15.0396 57.4714 14.7949 57.2663 14.5108 57.0688 14.2187 56.9703 13.8754 56.9703 13.4808 56.9703 13.0703 57.0688 12.7191 57.2663 12.4271 57.4637 12.1272 57.7318 11.8943 58.0714 11.7286 58.4185 11.5628 58.8092 11.4799 59.2434 11.4799 59.9221 11.4799 60.4591 11.6694 60.8536 12.0482 61.2561 12.4192 61.4574 12.9085 61.4574 13.5163 61.4574 13.8872 61.3508 14.2227 61.1377 14.5226 60.9246 14.8225 60.6958 15.0633 60.451 15.2448L60.451 15.2922C60.7982 15.4895 61.1022 15.7381 61.3627 16.0381 61.6231 16.338 61.7534 16.7405 61.7534 17.2457 61.7534 17.6324 61.6468 17.9797 61.4337 18.2875 61.2206 18.5953 60.9246 18.84 60.5458 19.0216 60.1669 19.2031 59.7208 19.2939 59.2079 19.2939ZM59.7052 14.9015C59.9103 14.6963 60.0642 14.4871 60.1669 14.274 60.2773 14.0609 60.3327 13.8359 60.3327 13.5992 60.3327 13.2677 60.2341 12.9954 60.0367 12.7823 59.8392 12.5612 59.5669 12.4508 59.2198 12.4508 58.9276 12.4508 58.6832 12.5415 58.4857 12.7231 58.2883 12.9046 58.1897 13.1572 58.1897 13.4808 58.1897 13.7333 58.257 13.9464 58.391 14.1201 58.5251 14.2858 58.7068 14.4318 58.9356 14.5581 59.1724 14.6765 59.429 14.791 59.7052 14.9015ZM59.2316 18.323C59.5948 18.323 59.8908 18.2244 60.1195 18.0271 60.3563 17.8219 60.4747 17.5456 60.4747 17.1983 60.4747 16.9221 60.3918 16.6971 60.2261 16.5235 60.0684 16.3498 59.8511 16.1999 59.5749 16.0736 59.3065 15.9394 59.0028 15.8052 58.6633 15.671 58.4265 15.8447 58.2291 16.0499 58.0714 16.2867 57.9213 16.5235 57.8464 16.7879 57.8464 17.0799 57.8464 17.4509 57.9805 17.7508 58.2489 17.9797 58.5174 18.2086 58.8447 18.323 59.2316 18.323Z" fill="#000000" fill-rule="nonzero" fill-opacity="1" transform="scale(1 1.00165)"/><path d="M209.03 19.1518 209.03 18.3586C209.733 17.6798 210.336 17.076 210.842 16.5471 211.355 16.0104 211.749 15.525 212.026 15.0909 212.302 14.6489 212.44 14.2385 212.44 13.8596 212.44 13.465 212.333 13.1493 212.12 12.9125 211.907 12.6757 211.599 12.5573 211.197 12.5573 210.905 12.5573 210.637 12.6402 210.392 12.8059 210.155 12.9717 209.934 13.169 209.729 13.3979L208.971 12.6402C209.318 12.2692 209.678 11.9851 210.048 11.7878 210.419 11.5825 210.862 11.4799 211.374 11.4799 212.1 11.4799 212.677 11.6891 213.103 12.1074 213.537 12.5257 213.754 13.0861 213.754 13.7886 213.754 14.2306 213.628 14.6844 213.375 15.1501 213.13 15.6079 212.799 16.0775 212.381 16.559 211.97 17.0405 211.517 17.5456 211.019 18.0744 211.217 18.0586 211.43 18.0428 211.659 18.0271 211.887 18.0034 212.093 17.9915 212.274 17.9915L214.121 17.9915 214.121 19.1518 209.03 19.1518ZM217.681 19.2939C216.9 19.2939 216.276 18.9545 215.811 18.2757 215.353 17.5969 215.124 16.6221 215.124 15.3514 215.124 14.0806 215.353 13.1177 215.811 12.4626 216.276 11.8075 216.9 11.4799 217.681 11.4799 218.463 11.4799 219.082 11.8075 219.54 12.4626 220.006 13.1177 220.239 14.0806 220.239 15.3514 220.239 16.6221 220.006 17.5969 219.54 18.2757 219.082 18.9545 218.463 19.2939 217.681 19.2939ZM217.681 18.2283C217.926 18.2283 218.143 18.1375 218.332 17.956 218.522 17.7666 218.668 17.4627 218.77 17.0444 218.881 16.6261 218.936 16.0617 218.936 15.3514 218.936 14.641 218.881 14.0806 218.77 13.6702 218.668 13.2598 218.522 12.9717 218.332 12.8059 218.143 12.6323 217.926 12.5455 217.681 12.5455 217.445 12.5455 217.231 12.6323 217.042 12.8059 216.853 12.9717 216.702 13.2598 216.592 13.6702 216.481 14.0806 216.426 14.641 216.426 15.3514 216.426 16.0617 216.481 16.6261 216.592 17.0444 216.702 17.4627 216.853 17.7666 217.042 17.956 217.231 18.1375 217.445 18.2283 217.681 18.2283ZM221.596 19.1518 221.596 18.0389 223.277 18.0389 223.277 13.0901 221.892 13.0901 221.892 12.2376C222.263 12.1666 222.587 12.0837 222.863 11.989 223.14 11.8864 223.396 11.7641 223.633 11.622L224.651 11.622 224.651 18.0389 226.131 18.0389 226.131 19.1518 221.596 19.1518ZM228.483 13.9425C228.483 14.3845 228.586 14.72 228.791 14.9488 229.004 15.1777 229.3 15.2922 229.679 15.2922 229.9 15.2922 230.129 15.2251 230.366 15.0909 230.61 14.9488 230.831 14.7239 231.029 14.4161 230.958 13.7531 230.796 13.2716 230.543 12.9717 230.291 12.6718 229.979 12.5218 229.608 12.5218 229.3 12.5218 229.036 12.6441 228.815 12.8888 228.594 13.1335 228.483 13.4847 228.483 13.9425ZM229.359 19.2939C228.909 19.2939 228.519 19.211 228.187 19.0452 227.856 18.8795 227.575 18.6782 227.347 18.4414L228.081 17.6127C228.223 17.7784 228.4 17.9166 228.613 18.0271 228.835 18.1297 229.06 18.181 229.288 18.181 229.604 18.181 229.892 18.0942 230.153 17.9205 230.413 17.7468 230.626 17.4588 230.792 17.0562 230.958 16.6458 231.049 16.0933 231.064 15.3987 230.843 15.6671 230.583 15.8802 230.283 16.0381 229.983 16.1959 229.695 16.2748 229.419 16.2748 228.771 16.2748 228.243 16.0854 227.832 15.7066 227.43 15.3198 227.228 14.7318 227.228 13.9425 227.228 13.4373 227.335 13.0033 227.548 12.6402 227.769 12.2692 228.057 11.9851 228.412 11.7878 228.775 11.5825 229.17 11.4799 229.596 11.4799 230.085 11.4799 230.535 11.6102 230.946 11.8706 231.364 12.1311 231.696 12.5336 231.94 13.0782 232.193 13.6149 232.319 14.3056 232.319 15.1501 232.319 16.1209 232.181 16.9142 231.905 17.5298 231.629 18.1375 231.265 18.5835 230.816 18.8676 230.366 19.1518 229.88 19.2939 229.359 19.2939Z" fill="#000000" fill-rule="nonzero" fill-opacity="1" transform="scale(1 1.00165)"/><path d="M379.655 19.1518 379.655 18.3586C380.358 17.6798 380.96 17.076 381.465 16.5471 381.981 16.0104 382.374 15.525 382.649 15.0909 382.928 14.6489 383.064 14.2385 383.064 13.8596 383.064 13.465 382.959 13.1493 382.747 12.9125 382.531 12.6757 382.224 12.5573 381.82 12.5573 381.531 12.5573 381.26 12.6402 381.016 12.8059 380.779 12.9717 380.56 13.169 380.354 13.3979L379.595 12.6402C379.944 12.2692 380.302 11.9851 380.675 11.7878 381.044 11.5825 381.486 11.4799 381.998 11.4799 382.726 11.4799 383.3 11.6891 383.729 12.1074 384.16 12.5257 384.38 13.0861 384.38 13.7886 384.38 14.2306 384.254 14.6844 384 15.1501 383.757 15.6079 383.426 16.0775 383.004 16.559 382.597 17.0405 382.141 17.5456 381.643 18.0744 381.841 18.0586 382.054 18.0428 382.284 18.0271 382.513 18.0034 382.719 17.9915 382.9 17.9915L384.745 17.9915 384.745 19.1518 379.655 19.1518ZM388.308 19.2939C387.524 19.2939 386.901 18.9545 386.434 18.2757 385.978 17.5969 385.748 16.6221 385.748 15.3514 385.748 14.0806 385.978 13.1177 386.434 12.4626 386.901 11.8075 387.524 11.4799 388.308 11.4799 389.088 11.4799 389.708 11.8075 390.164 12.4626 390.63 13.1177 390.864 14.0806 390.864 15.3514 390.864 16.6221 390.63 17.5969 390.164 18.2757 389.708 18.9545 389.088 19.2939 388.308 19.2939ZM388.308 18.2283C388.551 18.2283 388.767 18.1375 388.959 17.956 389.147 17.7666 389.293 17.4627 389.394 17.0444 389.506 16.6261 389.561 16.0617 389.561 15.3514 389.561 14.641 389.506 14.0806 389.394 13.6702 389.293 13.2598 389.147 12.9717 388.959 12.8059 388.767 12.6323 388.551 12.5455 388.308 12.5455 388.071 12.5455 387.855 12.6323 387.667 12.8059 387.479 12.9717 387.326 13.2598 387.218 13.6702 387.106 14.0806 387.051 14.641 387.051 15.3514 387.051 16.0617 387.106 16.6261 387.218 17.0444 387.326 17.4627 387.479 17.7666 387.667 17.956 387.855 18.1375 388.071 18.2283 388.308 18.2283ZM391.797 19.1518 391.797 18.3586C392.497 17.6798 393.103 17.076 393.608 16.5471 394.119 16.0104 394.513 15.525 394.791 15.0909 395.067 14.6489 395.206 14.2385 395.206 13.8596 395.206 13.465 395.098 13.1493 394.885 12.9125 394.673 12.6757 394.363 12.5573 393.963 12.5573 393.67 12.5573 393.402 12.6402 393.158 12.8059 392.922 12.9717 392.699 13.169 392.493 13.3979L391.738 12.6402C392.082 12.2692 392.441 11.9851 392.814 11.7878 393.183 11.5825 393.625 11.4799 394.14 11.4799 394.865 11.4799 395.443 11.6891 395.867 12.1074 396.303 12.5257 396.519 13.0861 396.519 13.7886 396.519 14.2306 396.393 14.6844 396.139 15.1501 395.895 15.6079 395.564 16.0775 395.147 16.559 394.736 17.0405 394.283 17.5456 393.785 18.0744 393.98 18.0586 394.196 18.0428 394.422 18.0271 394.652 18.0034 394.858 17.9915 395.039 17.9915L396.888 17.9915 396.888 19.1518 391.797 19.1518ZM400.446 19.2939C399.663 19.2939 399.04 18.9545 398.577 18.2757 398.117 17.5969 397.887 16.6221 397.887 15.3514 397.887 14.0806 398.117 13.1177 398.577 12.4626 399.04 11.8075 399.663 11.4799 400.446 11.4799 401.226 11.4799 401.846 11.8075 402.306 12.4626 402.769 13.1177 403.002 14.0806 403.002 15.3514 403.002 16.6221 402.769 17.5969 402.306 18.2757 401.846 18.9545 401.226 19.2939 400.446 19.2939ZM400.446 18.2283C400.69 18.2283 400.906 18.1375 401.098 17.956 401.286 17.7666 401.432 17.4627 401.536 17.0444 401.644 16.6261 401.7 16.0617 401.7 15.3514 401.7 14.641 401.644 14.0806 401.536 13.6702 401.432 13.2598 401.286 12.9717 401.098 12.8059 400.906 12.6323 400.69 12.5455 400.446 12.5455 400.21 12.5455 399.997 12.6323 399.806 12.8059 399.618 12.9717 399.468 13.2598 399.357 13.6702 399.245 14.0806 399.189 14.641 399.189 15.3514 399.189 16.0617 399.245 16.6261 399.357 17.0444 399.468 17.4627 399.618 17.7666 399.806 17.956 399.997 18.1375 400.21 18.2283 400.446 18.2283Z" fill="#000000" fill-rule="nonzero" fill-opacity="1" transform="scale(1 1.00165)"/><path d="M550.28 19.1518 550.28 18.3586C550.983 17.6798 551.585 17.076 552.09 16.5471 552.606 16.0104 552.999 15.525 553.274 15.0909 553.553 14.6489 553.689 14.2385 553.689 13.8596 553.689 13.465 553.584 13.1493 553.372 12.9125 553.156 12.6757 552.849 12.5573 552.445 12.5573 552.156 12.5573 551.885 12.6402 551.641 12.8059 551.404 12.9717 551.185 13.169 550.979 13.3979L550.22 12.6402C550.569 12.2692 550.927 11.9851 551.3 11.7878 551.669 11.5825 552.111 11.4799 552.623 11.4799 553.351 11.4799 553.925 11.6891 554.354 12.1074 554.785 12.5257 555.005 13.0861 555.005 13.7886 555.005 14.2306 554.879 14.6844 554.625 15.1501 554.382 15.6079 554.051 16.0775 553.629 16.559 553.222 17.0405 552.766 17.5456 552.268 18.0744 552.466 18.0586 552.679 18.0428 552.909 18.0271 553.138 18.0034 553.344 17.9915 553.525 17.9915L555.37 17.9915 555.37 19.1518 550.28 19.1518ZM558.933 19.2939C558.149 19.2939 557.526 18.9545 557.059 18.2757 556.603 17.5969 556.373 16.6221 556.373 15.3514 556.373 14.0806 556.603 13.1177 557.059 12.4626 557.526 11.8075 558.149 11.4799 558.933 11.4799 559.713 11.4799 560.333 11.8075 560.789 12.4626 561.255 13.1177 561.489 14.0806 561.489 15.3514 561.489 16.6221 561.255 17.5969 560.789 18.2757 560.333 18.9545 559.713 19.2939 558.933 19.2939ZM558.933 18.2283C559.176 18.2283 559.392 18.1375 559.584 17.956 559.772 17.7666 559.918 17.4627 560.019 17.0444 560.131 16.6261 560.186 16.0617 560.186 15.3514 560.186 14.641 560.131 14.0806 560.019 13.6702 559.918 13.2598 559.772 12.9717 559.584 12.8059 559.392 12.6323 559.176 12.5455 558.933 12.5455 558.696 12.5455 558.48 12.6323 558.292 12.8059 558.104 12.9717 557.951 13.2598 557.843 13.6702 557.731 14.0806 557.676 14.641 557.676 15.3514 557.676 16.0617 557.731 16.6261 557.843 17.0444 557.951 17.4627 558.104 17.7666 558.292 17.956 558.48 18.1375 558.696 18.2283 558.933 18.2283ZM562.422 19.1518 562.422 18.3586C563.122 17.6798 563.728 17.076 564.233 16.5471 564.744 16.0104 565.138 15.525 565.416 15.0909 565.692 14.6489 565.831 14.2385 565.831 13.8596 565.831 13.465 565.723 13.1493 565.51 12.9125 565.298 12.6757 564.988 12.5573 564.588 12.5573 564.295 12.5573 564.027 12.6402 563.783 12.8059 563.547 12.9717 563.324 13.169 563.118 13.3979L562.363 12.6402C562.707 12.2692 563.066 11.9851 563.439 11.7878 563.808 11.5825 564.25 11.4799 564.765 11.4799 565.49 11.4799 566.068 11.6891 566.492 12.1074 566.928 12.5257 567.144 13.0861 567.144 13.7886 567.144 14.2306 567.018 14.6844 566.764 15.1501 566.52 15.6079 566.189 16.0775 565.772 16.559 565.361 17.0405 564.908 17.5456 564.41 18.0744 564.605 18.0586 564.821 18.0428 565.047 18.0271 565.277 18.0034 565.483 17.9915 565.664 17.9915L567.513 17.9915 567.513 19.1518 562.422 19.1518ZM568.916 19.1518 568.916 18.0389 570.598 18.0389 570.598 13.0901 569.212 13.0901 569.212 12.2376C569.585 12.1666 569.908 12.0837 570.183 11.989 570.459 11.8864 570.716 11.7641 570.953 11.622L571.97 11.622 571.97 18.0389 573.45 18.0389 573.45 19.1518 568.916 19.1518Z" fill="#000000" fill-rule="nonzero" fill-opacity="1" transform="scale(1 1.00165)"/><path d="M117 49.2723C118.827 49.2723 120.308 50.7534 120.308 52.5804L120.308 63.7232C120.308 65.5502 118.827 67.0312 117 67.0312L79.3929 67.0312C77.5659 67.0312 76.0848 65.5502 76.0848 63.7232L76.0848 52.5804C76.0848 50.7534 77.5659 49.2723 79.3929 49.2723Z" stroke="#FFD392" stroke-width="0.348214" stroke-linecap="butt" stroke-linejoin="miter" stroke-miterlimit="4" stroke-opacity="1" fill="#FFF6DE" fill-rule="nonzero" fill-opacity="1" transform="scale(1 1.00165)"/><path d="M205.098 111.951C206.925 111.951 208.406 113.432 208.406 115.259L208.406 126.402C208.406 128.229 206.925 129.71 205.098 129.71L167.491 129.71C165.664 129.71 164.183 128.229 164.183 126.402L164.183 115.259C164.183 113.432 165.664 111.951 167.491 111.951Z" stroke="#FFD392" stroke-width="0.348214" stroke-linecap="butt" stroke-linejoin="miter" stroke-miterlimit="4" stroke-opacity="1" fill="#FFF6DE" fill-rule="nonzero" fill-opacity="1" transform="scale(1 1.00165)"/><path d="M258.375 81.6562C260.202 81.6562 261.683 83.1373 261.683 84.9643L261.683 96.1071C261.683 97.9341 260.202 99.4152 258.375 99.4152L220.768 99.4152C218.941 99.4152 217.46 97.9341 217.46 96.1071L217.46 84.9643C217.46 83.1373 218.941 81.6562 220.768 81.6562Z" stroke="#FFD392" stroke-width="0.348214" stroke-linecap="butt" stroke-linejoin="miter" stroke-miterlimit="4" stroke-opacity="1" fill="#FFF6DE" fill-rule="nonzero" fill-opacity="1" transform="scale(1 1.00165)"/><path d="M284.491 49.2723C286.318 49.2723 287.799 50.7534 287.799 52.5804L287.799 63.7232C287.799 65.5502 286.318 67.0312 284.491 67.0312L238.875 67.0312C237.048 67.0312 235.567 65.5502 235.567 63.7232L235.567 52.5804C235.567 50.7534 237.048 49.2723 238.875 49.2723Z" stroke="#FFD392" stroke-width="0.348214" stroke-linecap="butt" stroke-linejoin="miter" stroke-miterlimit="4" stroke-opacity="1" fill="#FFF6DE" fill-rule="nonzero" fill-opacity="1" transform="scale(1 1.00165)"/><path d="M380.946 35.692C382.773 35.692 384.254 37.173 384.254 39L384.254 50.1429C384.254 51.9698 382.773 53.4509 380.946 53.4509L351 53.4509C349.173 53.4509 347.692 51.9698 347.692 50.1429L347.692 39C347.692 37.173 349.173 35.692 351 35.692Z" stroke="#FFD392" stroke-width="0.348214" stroke-linecap="butt" stroke-linejoin="miter" stroke-miterlimit="4" stroke-opacity="1" fill="#FFF6DE" fill-rule="nonzero" fill-opacity="1" transform="scale(1 1.00165)"/><path d="M375.723 67.7277C377.55 67.7277 379.031 69.2087 379.031 71.0357L379.031 82.1786C379.031 84.0056 377.55 85.4866 375.723 85.4866L328.714 85.4866C326.887 85.4866 325.406 84.0056 325.406 82.1786L325.406 71.0357C325.406 69.2087 326.887 67.7277 328.714 67.7277Z" stroke="#FFD392" stroke-width="0.348214" stroke-linecap="butt" stroke-linejoin="miter" stroke-miterlimit="4" stroke-opacity="1" fill="#FFF6DE" fill-rule="nonzero" fill-opacity="1" transform="scale(1 1.00165)"/><path d="M397.312 111.951C399.139 111.951 400.621 113.432 400.621 115.259L400.621 126.402C400.621 128.229 399.139 129.71 397.312 129.71L359.357 129.71C357.53 129.71 356.049 128.229 356.049 126.402L356.049 115.259C356.049 113.432 357.53 111.951 359.357 111.951Z" stroke="#FFD392" stroke-width="0.348214" stroke-linecap="butt" stroke-linejoin="miter" stroke-miterlimit="4" stroke-opacity="1" fill="#FFF6DE" fill-rule="nonzero" fill-opacity="1" transform="scale(1 1.00165)"/><path d="M325.929 135.281C327.756 135.281 329.237 136.762 329.237 138.589L329.237 149.732C329.237 151.559 327.756 153.04 325.929 153.04L284.491 153.04C282.664 153.04 281.183 151.559 281.183 149.732L281.183 138.589C281.183 136.762 282.664 135.281 284.491 135.281Z" stroke="#FFD392" stroke-width="0.348214" stroke-linecap="butt" stroke-linejoin="miter" stroke-miterlimit="4" stroke-opacity="1" fill="#FFF6DE" fill-rule="nonzero" fill-opacity="1" transform="scale(1 1.00165)"/><path d="M410.545 143.29C412.372 143.29 413.853 144.771 413.853 146.598L413.853 157.741C413.853 159.568 412.372 161.049 410.545 161.049L346.125 161.049C344.298 161.049 342.817 159.568 342.817 157.741L342.817 146.598C342.817 144.771 344.298 143.29 346.125 143.29Z" stroke="#FFD392" stroke-width="0.348214" stroke-linecap="butt" stroke-linejoin="miter" stroke-miterlimit="4" stroke-opacity="1" fill="#FFF6DE" fill-rule="nonzero" fill-opacity="1" transform="scale(1 1.00165)"/><path d="M344.036 101.853C345.863 101.853 347.344 103.334 347.344 105.161L347.344 116.304C347.344 118.131 345.863 119.612 344.036 119.612L284.491 119.612C282.664 119.612 281.183 118.131 281.183 116.304L281.183 105.161C281.183 103.334 282.664 101.853 284.491 101.853Z" stroke="#FFD392" stroke-width="0.348214" stroke-linecap="butt" stroke-linejoin="miter" stroke-miterlimit="4" stroke-opacity="1" fill="#FFF6DE" fill-rule="nonzero" fill-opacity="1" transform="scale(1 1.00165)"/><path d="M508.393 39.1741C510.22 39.1741 511.701 40.6552 511.701 42.4821L511.701 53.625C511.701 55.452 510.22 56.933 508.393 56.933L468.348 56.933C466.521 56.933 465.04 55.452 465.04 53.625L465.04 42.4821C465.04 40.6552 466.521 39.1741 468.348 39.1741Z" stroke="#FFD392" stroke-width="0.348214" stroke-linecap="butt" stroke-linejoin="miter" stroke-miterlimit="4" stroke-opacity="1" fill="#FFF6DE" fill-rule="nonzero" fill-opacity="1" transform="scale(1 1.00165)"/><path d="M567.241 71.558C569.068 71.558 570.549 73.0391 570.549 74.8661L570.549 86.0089C570.549 87.8359 569.068 89.317 567.241 89.317L518.143 89.317C516.316 89.317 514.835 87.8359 514.835 86.0089L514.835 74.8661C514.835 73.0391 516.316 71.558 518.143 71.558Z" stroke="#FFD392" stroke-width="0.348214" stroke-linecap="butt" stroke-linejoin="miter" stroke-miterlimit="4" stroke-opacity="1" fill="#FFF6DE" fill-rule="nonzero" fill-opacity="1" transform="scale(1 1.00165)"/><path d="M471.482 75.7366C473.309 75.7366 474.79 77.2177 474.79 79.0446L474.79 90.1875C474.79 92.0145 473.309 93.4955 471.482 93.4955L412.982 93.4955C411.155 93.4955 409.674 92.0145 409.674 90.1875L409.674 79.0446C409.674 77.2177 411.155 75.7366 412.982 75.7366Z" stroke="#FFD392" stroke-width="0.348214" stroke-linecap="butt" stroke-linejoin="miter" stroke-miterlimit="4" stroke-opacity="1" fill="#FFF6DE" fill-rule="nonzero" fill-opacity="1" transform="scale(1 1.00165)"/><path d="M520.232 103.942C522.059 103.942 523.54 105.423 523.54 107.25L523.54 118.393C523.54 120.22 522.059 121.701 520.232 121.701L456.509 121.701C454.682 121.701 453.201 120.22 453.201 118.393L453.201 107.25C453.201 105.423 454.682 103.942 456.509 103.942Z" stroke="#FFD392" stroke-width="0.348214" stroke-linecap="butt" stroke-linejoin="miter" stroke-miterlimit="4" stroke-opacity="1" fill="#FFF6DE" fill-rule="nonzero" fill-opacity="1" transform="scale(1 1.00165)"/><path d="M590.571 117.174C592.398 117.174 593.879 118.655 593.879 120.482L593.879 131.625C593.879 133.452 592.398 134.933 590.571 134.933L550.527 134.933C548.7 134.933 547.219 133.452 547.219 131.625L547.219 120.482C547.219 118.655 548.7 117.174 550.527 117.174Z" stroke="#FFD392" stroke-width="0.348214" stroke-linecap="butt" stroke-linejoin="miter" stroke-miterlimit="4" stroke-opacity="1" fill="#FFF6DE" fill-rule="nonzero" fill-opacity="1" transform="scale(1 1.00165)"/><path d="M518.491 138.415C520.318 138.415 521.799 139.896 521.799 141.723L521.799 152.866C521.799 154.693 520.318 156.174 518.491 156.174L448.152 156.174C446.325 156.174 444.844 154.693 444.844 152.866L444.844 141.723C444.844 139.896 446.325 138.415 448.152 138.415Z" stroke="#FFD392" stroke-width="0.348214" stroke-linecap="butt" stroke-linejoin="miter" stroke-miterlimit="4" stroke-opacity="1" fill="#FFF6DE" fill-rule="nonzero" fill-opacity="1" transform="scale(1 1.00165)"/><path d="M92.8029 62.1159C92.164 62.1159 91.5957 61.9672 91.0981 61.6701 90.6005 61.3655 90.2105 60.9309 89.9281 60.3664 89.6457 59.802 89.5047 59.1223 89.5047 58.3273 89.5047 57.54 89.6495 56.8637 89.9392 56.2993 90.2289 55.7348 90.6263 55.3003 91.1315 54.9956 91.6368 54.6909 92.2124 54.5387 92.8587 54.5387 93.3639 54.5387 93.7873 54.6352 94.1289 54.8284 94.4782 55.014 94.7568 55.2184 94.9647 55.4413L94.4521 56.043C94.2665 55.8497 94.0509 55.6864 93.8058 55.5527 93.5607 55.419 93.2525 55.3521 92.8809 55.3521 92.3907 55.3521 91.9634 55.4747 91.5995 55.7199 91.2356 55.9577 90.9532 56.2955 90.7526 56.7339 90.5594 57.1723 90.4629 57.696 90.4629 58.305 90.4629 59.226 90.6708 59.958 91.0869 60.5001 91.5104 61.035 92.1121 61.3024 92.8921 61.3024 93.1522 61.3024 93.4008 61.2652 93.6387 61.191 93.8765 61.1092 94.0659 61.0016 94.2069 60.8679L94.2069 58.9624 92.6581 58.9624 92.6581 58.1936 95.0538 58.1936 95.0538 61.269C94.8236 61.5141 94.5116 61.7185 94.1178 61.8819 93.7316 62.0379 93.2932 62.1159 92.8029 62.1159ZM96.8053 61.9821 96.8053 54.6724 98.889 54.6724C99.4389 54.6724 99.918 54.7393 100.326 54.873 100.735 55.0067 101.055 55.2334 101.285 55.5527 101.515 55.8647 101.63 56.2881 101.63 56.823 101.63 57.588 101.381 58.1563 100.884 58.5279 100.386 58.8994 99.7359 59.085 98.9336 59.085L97.7302 59.085 97.7302 61.9821 96.8053 61.9821ZM97.7302 58.3273 98.8222 58.3273C99.4611 58.3273 99.9326 58.2085 100.237 57.9707 100.549 57.7256 100.705 57.3429 100.705 56.823 100.705 56.2955 100.542 55.9316 100.215 55.731 99.8957 55.5231 99.4166 55.419 98.7776 55.419L97.7302 55.419 97.7302 58.3273ZM104.36 61.9821 104.36 55.4524 102.154 55.4524 102.154 54.6724 107.502 54.6724 107.502 55.4524 105.296 55.4524 105.296 61.9821 104.36 61.9821Z" fill="#000000" fill-rule="nonzero" fill-opacity="1" transform="scale(1 1.00165)"/><path d="M174.827 124.661 174.827 117.351 177 117.351C177.498 117.351 177.932 117.411 178.304 117.529 178.683 117.648 178.976 117.837 179.184 118.098 179.399 118.358 179.507 118.703 179.507 119.134 179.507 119.498 179.414 119.829 179.229 120.126 179.05 120.415 178.786 120.616 178.438 120.727L178.438 120.772C178.876 120.854 179.232 121.039 179.507 121.329 179.789 121.619 179.931 122.016 179.931 122.521 179.931 122.997 179.812 123.394 179.574 123.714 179.344 124.033 179.02 124.271 178.605 124.427 178.189 124.583 177.706 124.661 177.156 124.661L174.827 124.661ZM175.752 120.46 176.833 120.46C177.457 120.46 177.906 120.352 178.181 120.137 178.456 119.921 178.594 119.628 178.594 119.256 178.594 118.833 178.449 118.532 178.159 118.354 177.877 118.176 177.449 118.086 176.878 118.086L175.752 118.086 175.752 120.46ZM175.752 123.925 177.022 123.925C177.654 123.925 178.144 123.81 178.493 123.58 178.842 123.342 179.017 122.978 179.017 122.488 179.017 122.035 178.842 121.704 178.493 121.496 178.151 121.281 177.661 121.173 177.022 121.173L175.752 121.173 175.752 123.925ZM181.378 124.661 181.378 117.351 185.59 117.351 185.59 118.131 182.303 118.131 182.303 120.426 185.077 120.426 185.077 121.218 182.303 121.218 182.303 123.87 185.701 123.87 185.701 124.661 181.378 124.661ZM187.254 124.661 187.254 117.351 189.538 117.351C190.036 117.351 190.478 117.418 190.864 117.552 191.25 117.678 191.551 117.893 191.767 118.198 191.99 118.495 192.101 118.896 192.101 119.401 192.101 119.966 191.952 120.423 191.655 120.772 191.358 121.113 190.957 121.347 190.452 121.474L192.313 124.661 191.265 124.661 189.505 121.574 188.179 121.574 188.179 124.661 187.254 124.661ZM188.179 120.816 189.405 120.816C189.977 120.816 190.415 120.701 190.719 120.471 191.024 120.233 191.176 119.877 191.176 119.401 191.176 118.918 191.024 118.581 190.719 118.387 190.415 118.194 189.977 118.098 189.405 118.098L188.179 118.098 188.179 120.816ZM194.961 124.661 194.961 118.131 192.755 118.131 192.755 117.351 198.103 117.351 198.103 118.131 195.897 118.131 195.897 124.661 194.961 124.661Z" fill="#000000" fill-rule="nonzero" fill-opacity="1" transform="scale(1 1.00165)"/><path d="M366.774 124.661 366.774 117.351 368.947 117.351C369.445 117.351 369.88 117.411 370.253 117.529 370.629 117.648 370.925 117.837 371.13 118.098 371.346 118.358 371.454 118.703 371.454 119.134 371.454 119.498 371.364 119.829 371.176 120.126 370.998 120.415 370.733 120.616 370.385 120.727L370.385 120.772C370.824 120.854 371.179 121.039 371.454 121.329 371.736 121.619 371.879 122.016 371.879 122.521 371.879 122.997 371.761 123.394 371.52 123.714 371.29 124.033 370.967 124.271 370.552 124.427 370.138 124.583 369.654 124.661 369.104 124.661L366.774 124.661ZM367.7 120.46 368.78 120.46C369.403 120.46 369.852 120.352 370.127 120.137 370.402 119.921 370.542 119.628 370.542 119.256 370.542 118.833 370.396 118.532 370.107 118.354 369.824 118.176 369.396 118.086 368.825 118.086L367.7 118.086 367.7 120.46ZM367.7 123.925 368.971 123.925C369.602 123.925 370.093 123.81 370.441 123.58 370.789 123.342 370.963 122.978 370.963 122.488 370.963 122.035 370.789 121.704 370.441 121.496 370.1 121.281 369.609 121.173 368.971 121.173L367.7 121.173 367.7 123.925ZM374.585 120.571 374.24 121.686 376.434 121.686 376.089 120.571C375.957 120.163 375.828 119.758 375.709 119.357 375.591 118.948 375.473 118.532 375.354 118.109L375.309 118.109C375.197 118.532 375.083 118.948 374.964 119.357 374.846 119.758 374.717 120.163 374.585 120.571ZM372.356 124.661 374.828 117.351 375.876 117.351 378.352 124.661 377.36 124.661 376.667 122.432 374.007 122.432 373.303 124.661 372.356 124.661ZM379.386 124.661 379.386 117.351 381.671 117.351C382.169 117.351 382.611 117.418 382.997 117.552 383.384 117.678 383.683 117.893 383.899 118.198 384.122 118.495 384.234 118.896 384.234 119.401 384.234 119.966 384.084 120.423 383.788 120.772 383.492 121.113 383.091 121.347 382.583 121.474L384.446 124.661 383.398 124.661 381.636 121.574 380.313 121.574 380.313 124.661 379.386 124.661ZM380.313 120.816 381.538 120.816C382.109 120.816 382.548 120.701 382.851 120.471 383.158 120.233 383.307 119.877 383.307 119.401 383.307 118.918 383.158 118.581 382.851 118.387 382.548 118.194 382.109 118.098 381.538 118.098L380.313 118.098 380.313 120.816ZM387.092 124.661 387.092 118.131 384.888 118.131 384.888 117.351 390.237 117.351 390.237 118.131 388.029 118.131 388.029 124.661 387.092 124.661Z" fill="#000000" fill-rule="nonzero" fill-opacity="1" transform="scale(1 1.00165)"/><path d="M355.516 156 355.516 148.69 357.344 148.69C358.473 148.69 359.333 149.006 359.918 149.637 360.506 150.261 360.799 151.153 360.799 152.312 360.799 153.478 360.506 154.384 359.918 155.031 359.34 155.677 358.497 156 357.39 156L355.516 156ZM356.443 155.242 357.278 155.242C358.131 155.242 358.772 154.986 359.194 154.473 359.625 153.954 359.841 153.233 359.841 152.312 359.841 151.391 359.625 150.685 359.194 150.195 358.772 149.697 358.131 149.448 357.278 149.448L356.443 149.448 356.443 155.242ZM362.286 156 362.286 150.585 363.198 150.585 363.198 156 362.286 156ZM362.752 149.47C362.575 149.47 362.425 149.418 362.307 149.314 362.195 149.203 362.139 149.054 362.139 148.869 362.139 148.69 362.195 148.545 362.307 148.434 362.425 148.323 362.575 148.267 362.752 148.267 362.93 148.267 363.076 148.323 363.188 148.434 363.306 148.545 363.365 148.69 363.365 148.869 363.365 149.054 363.306 149.203 363.188 149.314 363.076 149.418 362.93 149.47 362.752 149.47ZM366.44 156.134C366.053 156.134 365.688 156.063 365.34 155.922 364.988 155.773 364.685 155.595 364.424 155.387L364.88 154.774C365.12 154.96 365.364 155.116 365.618 155.242 365.869 155.361 366.154 155.421 366.475 155.421 366.83 155.421 367.098 155.339 367.276 155.175 367.457 155.004 367.544 154.804 367.544 154.574 367.544 154.388 367.481 154.232 367.356 154.106 367.237 153.979 367.081 153.876 366.886 153.794 366.701 153.705 366.509 153.623 366.307 153.549 366.053 153.452 365.806 153.344 365.562 153.225 365.315 153.099 365.117 152.94 364.96 152.746 364.803 152.546 364.727 152.293 364.727 151.989 364.727 151.55 364.89 151.186 365.214 150.897 365.548 150.6 366.012 150.451 366.597 150.451 366.931 150.451 367.244 150.51 367.533 150.629 367.822 150.748 368.073 150.893 368.278 151.064L367.833 151.643C367.648 151.502 367.457 151.387 367.255 151.298 367.053 151.209 366.833 151.164 366.597 151.164 366.255 151.164 366.005 151.242 365.841 151.398 365.684 151.554 365.604 151.736 365.604 151.944 365.604 152.115 365.66 152.256 365.771 152.367 365.883 152.472 366.029 152.564 366.207 152.646 366.384 152.72 366.576 152.798 366.774 152.88 367.035 152.976 367.293 153.088 367.544 153.214 367.798 153.333 368.003 153.497 368.167 153.705 368.338 153.905 368.425 154.176 368.425 154.518 368.425 154.808 368.348 155.075 368.191 155.32 368.042 155.565 367.819 155.762 367.523 155.911 367.234 156.06 366.872 156.134 366.44 156.134ZM371.182 156.134C370.601 156.134 370.197 155.967 369.967 155.632 369.744 155.298 369.633 154.863 369.633 154.329L369.633 151.331 368.832 151.331 368.832 150.64 369.678 150.585 369.79 149.069 370.559 149.069 370.559 150.585 372.018 150.585 372.018 151.331 370.559 151.331 370.559 154.34C370.559 154.674 370.618 154.934 370.737 155.12 370.862 155.298 371.082 155.387 371.395 155.387 371.489 155.387 371.593 155.372 371.705 155.343 371.816 155.305 371.917 155.272 372.008 155.242L372.185 155.933C372.036 155.985 371.872 156.03 371.694 156.067 371.524 156.111 371.353 156.134 371.182 156.134ZM373.24 156 373.24 150.585 374.156 150.585 374.156 156 373.24 156ZM373.711 149.47C373.533 149.47 373.383 149.418 373.265 149.314 373.153 149.203 373.098 149.054 373.098 148.869 373.098 148.69 373.153 148.545 373.265 148.434 373.383 148.323 373.533 148.267 373.711 148.267 373.888 148.267 374.034 148.323 374.146 148.434 374.264 148.545 374.323 148.69 374.323 148.869 374.323 149.054 374.264 149.203 374.146 149.314 374.034 149.418 373.888 149.47 373.711 149.47ZM376.952 156.134C376.611 156.134 376.364 156.03 376.207 155.822 376.057 155.606 375.984 155.302 375.984 154.908L375.984 148.066 376.897 148.066 376.897 154.975C376.897 155.116 376.925 155.22 376.977 155.287 377.029 155.346 377.088 155.376 377.154 155.376 377.182 155.376 377.21 155.376 377.231 155.376 377.262 155.369 377.304 155.361 377.356 155.354L377.478 156.045C377.419 156.074 377.346 156.096 377.266 156.111 377.182 156.126 377.081 156.134 376.952 156.134ZM378.913 156 378.913 148.69 381.086 148.69C381.584 148.69 382.019 148.75 382.392 148.869 382.768 148.987 383.064 149.177 383.269 149.437 383.485 149.697 383.593 150.042 383.593 150.473 383.593 150.837 383.499 151.168 383.314 151.465 383.137 151.755 382.872 151.955 382.524 152.067L382.524 152.111C382.963 152.193 383.318 152.379 383.593 152.668 383.875 152.958 384.018 153.355 384.018 153.861 384.018 154.336 383.899 154.734 383.659 155.053 383.429 155.372 383.105 155.61 382.691 155.766 382.273 155.922 381.793 156 381.242 156L378.913 156ZM379.839 151.799 380.919 151.799C381.542 151.799 381.991 151.692 382.266 151.476 382.541 151.26 382.681 150.967 382.681 150.596 382.681 150.172 382.534 149.871 382.245 149.693 381.963 149.515 381.535 149.426 380.964 149.426L379.839 149.426 379.839 151.799ZM379.839 155.265 381.11 155.265C381.74 155.265 382.231 155.149 382.58 154.919 382.928 154.681 383.102 154.317 383.102 153.827 383.102 153.374 382.928 153.043 382.58 152.835 382.238 152.62 381.747 152.512 381.11 152.512L379.839 152.512 379.839 155.265ZM385.463 156 385.463 148.69 389.676 148.69 389.676 149.47 386.389 149.47 386.389 151.766 389.164 151.766 389.164 152.557 386.389 152.557 386.389 155.209 389.788 155.209 389.788 156 385.463 156ZM391.341 156 391.341 148.69 393.625 148.69C394.123 148.69 394.565 148.757 394.952 148.891 395.338 149.017 395.638 149.232 395.854 149.537 396.076 149.834 396.188 150.235 396.188 150.741 396.188 151.305 396.038 151.762 395.742 152.111 395.446 152.453 395.042 152.687 394.537 152.813L396.4 156 395.352 156 393.59 152.913 392.263 152.913 392.263 156 391.341 156ZM392.263 152.156 393.489 152.156C394.064 152.156 394.502 152.04 394.805 151.81 395.112 151.572 395.262 151.216 395.262 150.741 395.262 150.258 395.112 149.92 394.805 149.727 394.502 149.533 394.064 149.437 393.489 149.437L392.263 149.437 392.263 152.156ZM399.047 156 399.047 149.47 396.842 149.47 396.842 148.69 402.191 148.69 402.191 149.47 399.983 149.47 399.983 156 399.047 156Z" fill="#000000" fill-rule="nonzero" fill-opacity="1" transform="scale(1 1.00165)"/><path d="M456.969 151.125 456.969 143.815 457.891 143.815 457.891 150.334 461.091 150.334 461.091 151.125 456.969 151.125ZM464.274 151.259C463.835 151.259 463.421 151.147 463.038 150.924 462.658 150.702 462.349 150.378 462.112 149.955 461.882 149.532 461.767 149.023 461.767 148.428 461.767 147.819 461.882 147.303 462.112 146.88 462.349 146.456 462.658 146.133 463.038 145.91 463.421 145.687 463.835 145.576 464.274 145.576 464.72 145.576 465.131 145.687 465.51 145.91 465.89 146.133 466.193 146.456 466.423 146.88 466.663 147.303 466.781 147.819 466.781 148.428 466.781 149.023 466.663 149.532 466.423 149.955 466.193 150.378 465.89 150.702 465.51 150.924 465.131 151.147 464.72 151.259 464.274 151.259ZM464.274 150.501C464.741 150.501 465.117 150.312 465.399 149.933 465.688 149.547 465.834 149.045 465.834 148.428 465.834 147.804 465.688 147.299 465.399 146.913 465.117 146.527 464.741 146.334 464.274 146.334 463.811 146.334 463.438 146.527 463.149 146.913 462.857 147.299 462.714 147.804 462.714 148.428 462.714 149.045 462.857 149.547 463.149 149.933 463.438 150.312 463.811 150.501 464.274 150.501ZM468.205 151.125 468.205 145.71 468.965 145.71 469.041 146.49 469.076 146.49C469.337 146.229 469.609 146.014 469.901 145.843 470.19 145.665 470.521 145.576 470.89 145.576 471.465 145.576 471.879 145.758 472.14 146.122 472.408 146.478 472.541 147.002 472.541 147.693L472.541 151.125 471.628 151.125 471.628 147.816C471.628 147.31 471.545 146.943 471.381 146.712 471.217 146.482 470.96 146.367 470.601 146.367 470.326 146.367 470.079 146.438 469.856 146.579 469.64 146.72 469.396 146.928 469.121 147.203L469.121 151.125 468.205 151.125ZM476.127 153.621C475.466 153.621 474.93 153.495 474.512 153.242 474.097 152.99 473.888 152.629 473.888 152.161 473.888 151.931 473.958 151.708 474.101 151.493 474.24 151.285 474.435 151.099 474.679 150.936L474.679 150.891C474.546 150.809 474.432 150.694 474.334 150.546 474.244 150.397 474.198 150.219 474.198 150.011 474.198 149.781 474.264 149.58 474.39 149.409 474.515 149.238 474.651 149.104 474.79 149.008L474.79 148.963C474.613 148.815 474.449 148.614 474.299 148.362 474.16 148.109 474.087 147.823 474.087 147.504 474.087 147.11 474.181 146.768 474.365 146.478 474.553 146.189 474.801 145.966 475.114 145.81 475.424 145.654 475.765 145.576 476.127 145.576 476.277 145.576 476.416 145.591 476.552 145.62 476.684 145.643 476.799 145.672 476.897 145.71L478.781 145.71 478.781 146.412 477.666 146.412C477.792 146.53 477.896 146.69 477.976 146.891 478.067 147.084 478.112 147.296 478.112 147.526 478.112 147.912 478.022 148.246 477.844 148.529 477.666 148.811 477.426 149.03 477.13 149.186 476.834 149.335 476.5 149.409 476.127 149.409 475.838 149.409 475.567 149.346 475.313 149.22 475.219 149.301 475.135 149.394 475.069 149.498 475.003 149.595 474.968 149.717 474.968 149.866 474.968 150.037 475.034 150.178 475.17 150.289 475.309 150.401 475.563 150.456 475.925 150.456L476.974 150.456C477.607 150.456 478.077 150.561 478.391 150.768 478.708 150.969 478.868 151.296 478.868 151.749 478.868 152.083 478.756 152.391 478.534 152.674 478.311 152.956 477.997 153.183 477.586 153.354 477.179 153.532 476.691 153.621 476.127 153.621ZM476.127 148.796C476.441 148.796 476.705 148.681 476.928 148.451 477.162 148.213 477.276 147.897 477.276 147.504 477.276 147.11 477.165 146.802 476.942 146.579 476.719 146.356 476.448 146.244 476.127 146.244 475.807 146.244 475.535 146.356 475.313 146.579 475.09 146.802 474.978 147.11 474.978 147.504 474.978 147.897 475.09 148.213 475.313 148.451 475.546 148.681 475.814 148.796 476.127 148.796ZM476.26 152.986C476.782 152.986 477.196 152.871 477.51 152.64 477.82 152.418 477.976 152.165 477.976 151.883 477.976 151.63 477.882 151.455 477.687 151.359 477.503 151.263 477.235 151.214 476.886 151.214L475.95 151.214C475.845 151.214 475.73 151.207 475.605 151.192 475.487 151.177 475.365 151.155 475.246 151.125 475.055 151.266 474.912 151.415 474.825 151.571 474.734 151.727 474.689 151.883 474.689 152.039 474.689 152.328 474.828 152.559 475.104 152.73 475.386 152.901 475.772 152.986 476.26 152.986ZM480.073 151.125 480.073 146.456 479.334 146.456 479.334 145.765 480.073 145.71 480.073 144.852C480.073 144.302 480.198 143.867 480.449 143.548 480.71 143.221 481.11 143.058 481.653 143.058 481.824 143.058 481.988 143.076 482.144 143.113 482.301 143.143 482.437 143.184 482.555 143.236L482.357 143.938C482.155 143.849 481.949 143.804 481.744 143.804 481.239 143.804 480.985 144.153 480.985 144.852L480.985 145.71 482.134 145.71 482.134 146.456 480.985 146.456 480.985 151.125 480.073 151.125ZM485.167 151.259C484.728 151.259 484.314 151.147 483.931 150.924 483.551 150.702 483.241 150.378 483.005 149.955 482.775 149.532 482.66 149.023 482.66 148.428 482.66 147.819 482.775 147.303 483.005 146.88 483.241 146.456 483.551 146.133 483.931 145.91 484.314 145.687 484.728 145.576 485.167 145.576 485.613 145.576 486.024 145.687 486.403 145.91 486.783 146.133 487.086 146.456 487.315 146.88 487.556 147.303 487.674 147.819 487.674 148.428 487.674 149.023 487.556 149.532 487.315 149.955 487.086 150.378 486.783 150.702 486.403 150.924 486.024 151.147 485.613 151.259 485.167 151.259ZM485.167 150.501C485.634 150.501 486.01 150.312 486.292 149.933 486.581 149.547 486.727 149.045 486.727 148.428 486.727 147.804 486.581 147.299 486.292 146.913 486.01 146.527 485.634 146.334 485.167 146.334 484.704 146.334 484.331 146.527 484.042 146.913 483.75 147.299 483.607 147.804 483.607 148.428 483.607 149.045 483.75 149.547 484.042 149.933 484.331 150.312 484.704 150.501 485.167 150.501ZM489.098 151.125 489.098 145.71 489.857 145.71 489.934 146.69 489.969 146.69C490.153 146.349 490.38 146.077 490.648 145.877 490.916 145.676 491.202 145.576 491.504 145.576 491.72 145.576 491.915 145.613 492.086 145.687L491.908 146.49C491.818 146.46 491.738 146.438 491.661 146.423 491.588 146.408 491.494 146.4 491.383 146.4 491.153 146.4 490.913 146.493 490.658 146.679 490.415 146.865 490.199 147.188 490.014 147.648L490.014 151.125 489.098 151.125ZM492.963 151.125 492.963 145.71 493.719 145.71 493.799 146.49 493.831 146.49C494.071 146.229 494.328 146.014 494.611 145.843 494.893 145.665 495.196 145.576 495.512 145.576 495.93 145.576 496.254 145.669 496.484 145.854 496.721 146.033 496.895 146.285 497.006 146.612 497.288 146.307 497.574 146.059 497.866 145.866 498.155 145.672 498.462 145.576 498.789 145.576 499.346 145.576 499.761 145.758 500.025 146.122 500.3 146.478 500.44 147.002 500.44 147.693L500.44 151.125 499.524 151.125 499.524 147.816C499.524 147.31 499.444 146.943 499.28 146.712 499.116 146.482 498.866 146.367 498.521 146.367 498.121 146.367 497.668 146.646 497.163 147.203L497.163 151.125 496.251 151.125 496.251 147.816C496.251 147.31 496.167 146.943 496.003 146.712 495.84 146.482 495.586 146.367 495.234 146.367 494.833 146.367 494.381 146.646 493.876 147.203L493.876 151.125 492.963 151.125ZM504.395 151.259C503.915 151.259 503.476 151.147 503.083 150.924 502.689 150.694 502.376 150.367 502.146 149.944 501.916 149.52 501.801 149.015 501.801 148.428 501.801 147.834 501.916 147.325 502.146 146.902 502.383 146.478 502.689 146.151 503.058 145.921 503.431 145.691 503.821 145.576 504.228 145.576 504.921 145.576 505.45 145.806 505.823 146.267 506.203 146.727 506.391 147.344 506.391 148.116 506.391 148.213 506.387 148.31 506.38 148.406 506.38 148.495 506.373 148.573 506.356 148.64L502.703 148.64C502.738 149.212 502.919 149.669 503.236 150.011 503.563 150.352 503.988 150.523 504.507 150.523 504.768 150.523 505.005 150.486 505.221 150.412 505.444 150.33 505.656 150.226 505.854 150.1L506.178 150.702C505.948 150.85 505.684 150.98 505.388 151.092 505.099 151.203 504.768 151.259 504.395 151.259ZM502.693 147.983 505.59 147.983C505.59 147.433 505.468 147.017 505.231 146.735 505.001 146.445 504.674 146.3 504.253 146.3 503.873 146.3 503.532 146.449 503.225 146.746 502.929 147.036 502.752 147.448 502.693 147.983ZM507.728 151.125 507.728 145.71 508.487 145.71 508.564 146.69 508.598 146.69C508.783 146.349 509.009 146.077 509.277 145.877 509.545 145.676 509.831 145.576 510.134 145.576 510.35 145.576 510.545 145.613 510.715 145.687L510.538 146.49C510.447 146.46 510.367 146.438 510.291 146.423 510.218 146.408 510.124 146.4 510.012 146.4 509.782 146.4 509.542 146.493 509.288 146.679 509.044 146.865 508.828 147.188 508.644 147.648L508.644 151.125 507.728 151.125Z" fill="#000000" fill-rule="nonzero" fill-opacity="1" transform="scale(1 1.00165)"/><path d="M229.777 94.3661 231.905 90.5886 229.921 87.0564 230.947 87.0564 231.938 88.9284C232.035 89.0917 232.124 89.2553 232.206 89.4186 232.295 89.582 232.395 89.7714 232.507 89.9869L232.551 89.9869C232.655 89.7714 232.744 89.582 232.819 89.4186 232.9 89.2553 232.986 89.0917 233.075 88.9284L234.044 87.0564 235.025 87.0564 233.03 90.6332 235.159 94.3661 234.133 94.3661 233.064 92.3938C232.967 92.2155 232.867 92.0334 232.763 91.8478 232.666 91.6545 232.558 91.4466 232.44 91.2238L232.395 91.2238C232.291 91.4466 232.191 91.6545 232.094 91.8478 231.997 92.0334 231.905 92.2155 231.816 92.3938L230.757 94.3661 229.777 94.3661ZM236.325 94.3661 236.325 87.0564 237.25 87.0564 237.25 93.5749 240.448 93.5749 240.448 94.3661 236.325 94.3661ZM241.744 94.3661 241.744 87.0564 242.858 87.0564 244.262 90.9564C244.351 91.2088 244.437 91.4651 244.519 91.7252 244.608 91.9777 244.697 92.2305 244.786 92.4829L244.831 92.4829C244.92 92.2305 245.001 91.9777 245.076 91.7252 245.157 91.4651 245.243 91.2088 245.332 90.9564L246.714 87.0564 247.839 87.0564 247.839 94.3661 246.97 94.3661 246.97 90.3435C246.97 90.0165 246.985 89.6565 247.015 89.2626 247.044 88.8615 247.07 88.5011 247.093 88.1818L247.048 88.1818 246.469 89.8421 245.087 93.6306 244.474 93.6306 243.092 89.8421 242.513 88.1818 242.468 88.1818C242.491 88.5011 242.513 88.8615 242.535 89.2626 242.565 89.6565 242.58 90.0165 242.58 90.3435L242.58 94.3661 241.744 94.3661Z" fill="#000000" fill-rule="nonzero" fill-opacity="1" transform="scale(1 1.00165)"/><path d="M291.786 147.991 293.914 144.214 291.931 140.681 292.956 140.681 293.948 142.553C294.044 142.717 294.133 142.88 294.215 143.044 294.304 143.207 294.404 143.396 294.516 143.612L294.56 143.612C294.664 143.396 294.753 143.207 294.828 143.044 294.909 142.88 294.995 142.717 295.084 142.553L296.054 140.681 297.034 140.681 295.04 144.258 297.168 147.991 296.143 147.991 295.073 146.019C294.976 145.84 294.876 145.658 294.772 145.473 294.675 145.28 294.568 145.072 294.449 144.849L294.404 144.849C294.3 145.072 294.2 145.28 294.104 145.473 294.007 145.658 293.914 145.84 293.825 146.019L292.766 147.991 291.786 147.991ZM298.334 147.991 298.334 140.681 299.259 140.681 299.259 147.2 302.457 147.2 302.457 147.991 298.334 147.991ZM303.754 147.991 303.754 140.681 304.712 140.681 307.353 145.272 308.144 146.788 308.188 146.788C308.166 146.416 308.14 146.034 308.11 145.64 308.088 145.239 308.077 144.845 308.077 144.459L308.077 140.681 308.957 140.681 308.957 147.991 307.999 147.991 305.347 143.389 304.556 141.885 304.511 141.885C304.541 142.249 304.567 142.624 304.589 143.01 304.619 143.396 304.634 143.783 304.634 144.169L304.634 147.991 303.754 147.991ZM313.074 148.125C312.591 148.125 312.153 148.013 311.759 147.791 311.366 147.56 311.054 147.233 310.823 146.81 310.593 146.387 310.478 145.881 310.478 145.295 310.478 144.7 310.593 144.191 310.823 143.768 311.061 143.345 311.366 143.018 311.737 142.787 312.108 142.557 312.498 142.442 312.907 142.442 313.598 142.442 314.129 142.672 314.5 143.133 314.879 143.593 315.068 144.21 315.068 144.982 315.068 145.079 315.065 145.176 315.057 145.272 315.057 145.361 315.05 145.439 315.035 145.506L311.38 145.506C311.417 146.078 311.596 146.535 311.915 146.877 312.242 147.218 312.665 147.389 313.185 147.389 313.445 147.389 313.683 147.352 313.898 147.278 314.121 147.196 314.333 147.092 314.534 146.966L314.857 147.568C314.627 147.716 314.363 147.846 314.066 147.958 313.776 148.069 313.445 148.125 313.074 148.125ZM311.369 144.849 314.266 144.849C314.266 144.299 314.147 143.883 313.91 143.601 313.679 143.311 313.352 143.166 312.929 143.166 312.55 143.166 312.209 143.315 311.904 143.612 311.607 143.902 311.429 144.314 311.369 144.849ZM318.003 148.125C317.423 148.125 317.018 147.958 316.788 147.623 316.565 147.289 316.454 146.855 316.454 146.32L316.454 143.322 315.652 143.322 315.652 142.631 316.499 142.576 316.61 141.06 317.379 141.06 317.379 142.576 318.839 142.576 318.839 143.322 317.379 143.322 317.379 146.331C317.379 146.665 317.438 146.925 317.557 147.111 317.683 147.289 317.903 147.378 318.215 147.378 318.311 147.378 318.415 147.363 318.527 147.334 318.638 147.296 318.738 147.263 318.827 147.233L319.006 147.924C318.857 147.976 318.694 148.021 318.515 148.058 318.344 148.103 318.173 148.125 318.003 148.125Z" fill="#000000" fill-rule="nonzero" fill-opacity="1" transform="scale(1 1.00165)"/><path d="M336.618 76.3481 336.273 77.4624 338.468 77.4624 338.123 76.3481C337.989 75.9396 337.863 75.5346 337.744 75.1335 337.625 74.725 337.506 74.3089 337.387 73.8855L337.343 73.8855C337.231 74.3089 337.116 74.725 336.997 75.1335 336.879 75.5346 336.752 75.9396 336.618 76.3481ZM334.39 80.4375 336.864 73.1278 337.911 73.1278 340.385 80.4375 339.393 80.4375 338.702 78.2089 336.039 78.2089 335.337 80.4375 334.39 80.4375ZM341.42 80.4375 341.42 73.1278 342.345 73.1278 342.345 79.6464 345.543 79.6464 345.543 80.4375 341.42 80.4375ZM346.84 80.4375 346.84 73.1278 349.012 73.1278C349.51 73.1278 349.945 73.1873 350.318 73.3061 350.694 73.4248 350.99 73.6142 351.195 73.8744 351.411 74.1345 351.519 74.4799 351.519 74.9106 351.519 75.2745 351.428 75.6053 351.24 75.9024 351.063 76.1921 350.798 76.3926 350.45 76.5041L350.45 76.5486C350.889 76.6305 351.244 76.8161 351.519 77.1058 351.801 77.3955 351.944 77.7928 351.944 78.2981 351.944 78.7734 351.825 79.1711 351.585 79.4904 351.355 79.8097 351.031 80.0475 350.617 80.2035 350.203 80.3595 349.719 80.4375 349.168 80.4375L346.84 80.4375ZM347.764 76.2366 348.845 76.2366C349.468 76.2366 349.917 76.129 350.192 75.9135 350.467 75.698 350.607 75.4048 350.607 75.0332 350.607 74.6098 350.46 74.3089 350.171 74.1306 349.889 73.9524 349.461 73.8632 348.89 73.8632L347.764 73.8632 347.764 76.2366ZM347.764 79.7021 349.036 79.7021C349.666 79.7021 350.157 79.5868 350.506 79.3566 350.854 79.1188 351.028 78.7549 351.028 78.2646 351.028 77.8116 350.854 77.4808 350.506 77.2729 350.164 77.0574 349.673 76.9498 349.036 76.9498L347.764 76.9498 347.764 79.7021ZM353.389 80.4375 353.389 73.1278 357.602 73.1278 357.602 73.9078 354.315 73.9078 354.315 76.2032 357.09 76.2032 357.09 76.9944 354.315 76.9944 354.315 79.6464 357.714 79.6464 357.714 80.4375 353.389 80.4375ZM359.267 80.4375 359.267 73.1278 361.551 73.1278C362.049 73.1278 362.491 73.1946 362.878 73.3284 363.264 73.4548 363.564 73.67 363.779 73.9746 364.002 74.2717 364.114 74.6728 364.114 75.1781 364.114 75.7425 363.964 76.1994 363.668 76.5486 363.372 76.8902 362.968 77.1242 362.463 77.2506L364.326 80.4375 363.278 80.4375 361.516 77.3509 360.193 77.3509 360.193 80.4375 359.267 80.4375ZM360.193 76.5932 361.419 76.5932C361.99 76.5932 362.428 76.478 362.731 76.2478 363.038 76.01 363.188 75.6534 363.188 75.1781 363.188 74.6951 363.038 74.3573 362.731 74.1641 362.428 73.9708 361.99 73.8744 361.419 73.8744L360.193 73.8744 360.193 76.5932ZM366.973 80.4375 366.973 73.9078 364.768 73.9078 364.768 73.1278 370.117 73.1278 370.117 73.9078 367.909 73.9078 367.909 80.4375 366.973 80.4375Z" fill="#000000" fill-rule="nonzero" fill-opacity="1" transform="scale(1 1.00165)"/><path d="M422.398 88.4464 422.398 81.1367 426.608 81.1367 426.608 81.9167 423.321 81.9167 423.321 84.2121 426.096 84.2121 426.096 85.0033 423.321 85.0033 423.321 87.6553 426.719 87.6553 426.719 88.4464 422.398 88.4464ZM428.272 88.4464 428.272 81.1367 429.198 81.1367 429.198 87.6553 432.395 87.6553 432.395 88.4464 428.272 88.4464ZM433.69 88.4464 433.69 81.1367 437.904 81.1367 437.904 81.9167 434.617 81.9167 434.617 84.2121 437.392 84.2121 437.392 85.0033 434.617 85.0033 434.617 87.6553 438.015 87.6553 438.015 88.4464 433.69 88.4464ZM442.33 88.5801C441.724 88.5801 441.177 88.4315 440.693 88.1344 440.219 87.8297 439.84 87.3952 439.558 86.8307 439.283 86.2663 439.143 85.5865 439.143 84.7916 439.143 84.0043 439.286 83.328 439.568 82.7636 439.85 82.1991 440.237 81.7645 440.728 81.4599 441.215 81.1552 441.769 81.003 442.385 81.003 442.831 81.003 443.228 81.096 443.569 81.2816 443.911 81.4599 444.186 81.6677 444.391 81.9056L443.89 82.5073C443.698 82.2994 443.479 82.1323 443.235 82.0059 442.988 81.8795 442.709 81.8164 442.399 81.8164 441.936 81.8164 441.532 81.939 441.184 82.1842 440.843 82.422 440.575 82.7597 440.38 83.1981 440.195 83.6365 440.101 84.1603 440.101 84.7693 440.101 85.3783 440.195 85.9097 440.38 86.3627 440.568 86.8084 440.825 87.1539 441.16 87.399 441.504 87.6441 441.905 87.7667 442.364 87.7667 442.713 87.7667 443.026 87.6926 443.301 87.5439 443.576 87.3952 443.827 87.1946 444.057 86.9421L444.572 87.5216C444.28 87.8559 443.956 88.116 443.59 88.3016 443.228 88.4872 442.807 88.5801 442.33 88.5801ZM447.253 88.4464 447.253 81.9167 445.046 81.9167 445.046 81.1367 450.394 81.1367 450.394 81.9167 448.19 81.9167 448.19 88.4464 447.253 88.4464ZM451.711 88.4464 451.711 81.1367 453.995 81.1367C454.493 81.1367 454.935 81.2036 455.322 81.3373 455.708 81.4637 456.011 81.6789 456.223 81.9836 456.446 82.2806 456.558 82.6817 456.558 83.187 456.558 83.7515 456.411 84.2083 456.112 84.5576 455.816 84.8992 455.416 85.1332 454.911 85.2596L456.77 88.4464 455.722 88.4464 453.963 85.3599 452.637 85.3599 452.637 88.4464 451.711 88.4464ZM452.637 84.6021 453.863 84.6021C454.434 84.6021 454.872 84.4869 455.179 84.2567 455.482 84.0189 455.635 83.6623 455.635 83.187 455.635 82.704 455.482 82.3663 455.179 82.173 454.872 81.9797 454.434 81.8833 453.863 81.8833L452.637 81.8833 452.637 84.6021ZM459.27 84.357 458.926 85.4713 461.123 85.4713 460.775 84.357C460.642 83.9485 460.517 83.5436 460.399 83.1424 460.277 82.734 460.158 82.3179 460.04 81.8944L459.995 81.8944C459.883 82.3179 459.768 82.734 459.65 83.1424 459.531 83.5436 459.406 83.9485 459.27 84.357ZM457.042 88.4464 459.518 81.1367 460.566 81.1367 463.038 88.4464 462.046 88.4464 461.356 86.2179 458.692 86.2179 457.989 88.4464 457.042 88.4464Z" fill="#000000" fill-rule="nonzero" fill-opacity="1" transform="scale(1 1.00165)"/><path d="M468.662 116.652 468.662 109.342 470.486 109.342C471.618 109.342 472.475 109.658 473.063 110.289 473.648 110.913 473.941 111.805 473.941 112.964 473.941 114.13 473.648 115.036 473.063 115.682 472.482 116.329 471.639 116.652 470.532 116.652L468.662 116.652ZM469.584 115.894 470.42 115.894C471.273 115.894 471.914 115.638 472.339 115.125 472.767 114.605 472.983 113.885 472.983 112.964 472.983 112.042 472.767 111.337 472.339 110.846 471.914 110.349 471.273 110.1 470.42 110.1L469.584 110.1 469.584 115.894ZM477.621 116.786C477.137 116.786 476.702 116.674 476.308 116.451 475.911 116.221 475.602 115.894 475.372 115.471 475.142 115.047 475.027 114.542 475.027 113.955 475.027 113.361 475.142 112.852 475.372 112.429 475.608 112.005 475.911 111.678 476.284 111.448 476.657 111.218 477.047 111.103 477.454 111.103 478.147 111.103 478.676 111.333 479.049 111.794 479.428 112.254 479.616 112.871 479.616 113.643 479.616 113.74 479.613 113.836 479.606 113.933 479.606 114.022 479.599 114.1 479.582 114.167L475.929 114.167C475.964 114.739 476.145 115.196 476.462 115.537 476.789 115.879 477.214 116.05 477.733 116.05 477.994 116.05 478.231 116.013 478.446 115.939 478.669 115.857 478.882 115.753 479.08 115.627L479.404 116.228C479.174 116.377 478.91 116.507 478.614 116.618 478.325 116.73 477.994 116.786 477.621 116.786ZM475.918 113.51 478.816 113.51C478.816 112.96 478.694 112.544 478.457 112.262 478.227 111.972 477.9 111.827 477.478 111.827 477.099 111.827 476.758 111.976 476.451 112.273 476.155 112.562 475.978 112.975 475.918 113.51ZM481.044 116.652 481.044 109.342 483.217 109.342C483.715 109.342 484.15 109.402 484.519 109.52 484.899 109.639 485.191 109.829 485.4 110.089 485.616 110.349 485.724 110.694 485.724 111.125 485.724 111.489 485.63 111.82 485.446 112.117 485.268 112.406 485.003 112.607 484.655 112.718L484.655 112.763C485.09 112.845 485.449 113.03 485.724 113.32 486.006 113.61 486.145 114.007 486.145 114.512 486.145 114.988 486.027 115.385 485.79 115.705 485.56 116.024 485.237 116.262 484.822 116.418 484.404 116.574 483.92 116.652 483.374 116.652L481.044 116.652ZM481.967 112.451 483.05 112.451C483.673 112.451 484.122 112.343 484.397 112.128 484.673 111.912 484.808 111.619 484.808 111.248 484.808 110.824 484.666 110.523 484.377 110.345 484.094 110.167 483.666 110.077 483.095 110.077L481.967 110.077 481.967 112.451ZM481.967 115.916 483.238 115.916C483.872 115.916 484.359 115.801 484.711 115.571 485.059 115.333 485.233 114.969 485.233 114.479 485.233 114.026 485.059 113.695 484.711 113.487 484.366 113.272 483.879 113.164 483.238 113.164L481.967 113.164 481.967 115.916ZM487.594 116.652 487.594 109.342 491.807 109.342 491.807 110.122 488.52 110.122 488.52 112.418 491.292 112.418 491.292 113.209 488.52 113.209 488.52 115.861 491.919 115.861 491.919 116.652 487.594 116.652ZM493.472 116.652 493.472 109.342 495.756 109.342C496.251 109.342 496.693 109.409 497.079 109.543 497.466 109.669 497.769 109.884 497.985 110.189 498.208 110.486 498.319 110.887 498.319 111.392 498.319 111.957 498.169 112.414 497.873 112.763 497.574 113.105 497.173 113.339 496.668 113.465L498.528 116.652 497.483 116.652 495.721 113.565 494.395 113.565 494.395 116.652 493.472 116.652ZM494.395 112.808 495.62 112.808C496.191 112.808 496.63 112.692 496.937 112.462 497.24 112.224 497.393 111.868 497.393 111.392 497.393 110.909 497.24 110.572 496.937 110.378 496.63 110.185 496.191 110.089 495.62 110.089L494.395 110.089 494.395 112.808ZM501.178 116.652 501.178 110.122 498.97 110.122 498.97 109.342 504.319 109.342 504.319 110.122 502.115 110.122 502.115 116.652 501.178 116.652ZM505.98 116.786C505.527 116.786 505.148 116.652 504.841 116.384 504.545 116.11 504.395 115.731 504.395 115.248 504.395 114.653 504.66 114.2 505.189 113.888 505.722 113.569 506.565 113.346 507.717 113.22 507.717 112.99 507.682 112.77 507.616 112.562 507.557 112.354 507.446 112.187 507.282 112.061 507.125 111.927 506.899 111.86 506.603 111.86 506.29 111.86 505.997 111.92 505.722 112.039 505.447 112.157 505.203 112.291 504.987 112.44L504.632 111.805C504.883 111.641 505.193 111.485 505.555 111.337 505.928 111.181 506.328 111.103 506.76 111.103 507.421 111.103 507.898 111.307 508.198 111.716 508.494 112.117 508.644 112.655 508.644 113.331L508.644 116.652 507.884 116.652 507.808 116.006 507.773 116.006C507.519 116.213 507.24 116.396 506.937 116.552 506.641 116.708 506.321 116.786 505.98 116.786ZM506.248 116.05C506.506 116.05 506.753 115.987 506.983 115.861 507.212 115.734 507.456 115.556 507.717 115.326L507.717 113.822C506.819 113.933 506.185 114.1 505.823 114.323 505.468 114.546 505.287 114.832 505.287 115.181 505.287 115.486 505.381 115.708 505.565 115.85 505.753 115.983 505.98 116.05 506.248 116.05Z" fill="#000000" fill-rule="nonzero" fill-opacity="1" transform="scale(1 1.00165)"/><path d="M524.522 84.2679 524.522 76.9581 525.636 76.9581 527.04 80.8581C527.13 81.1106 527.214 81.3669 527.297 81.627 527.385 81.8795 527.475 82.1323 527.562 82.3847L527.607 82.3847C527.698 82.1323 527.778 81.8795 527.855 81.627 527.935 81.3669 528.022 81.1106 528.109 80.8581L529.491 76.9581 530.616 76.9581 530.616 84.2679 529.749 84.2679 529.749 80.2453C529.749 79.9183 529.763 79.5583 529.791 79.1644 529.822 78.7633 529.846 78.4029 529.871 78.0836L529.826 78.0836 529.247 79.7439 527.865 83.5324 527.252 83.5324 525.87 79.7439 525.292 78.0836 525.246 78.0836C525.267 78.4029 525.292 78.7633 525.313 79.1644 525.34 79.5583 525.358 79.9183 525.358 80.2453L525.358 84.2679 524.522 84.2679ZM532.061 84.2679 532.061 83.7219C532.775 83.0087 533.377 82.3847 533.875 81.8499 534.373 81.3077 534.753 80.8209 535.014 80.3901 535.272 79.9517 535.404 79.5433 535.404 79.1644 535.404 78.756 535.292 78.4217 535.07 78.1616 534.847 77.9015 534.509 77.7716 534.056 77.7716 533.757 77.7716 533.482 77.8569 533.231 78.0279 532.977 78.1912 532.747 78.3917 532.538 78.6296L532.016 78.1059C532.312 77.7789 532.629 77.5191 532.963 77.3259 533.304 77.1253 533.705 77.025 534.168 77.025 534.826 77.025 535.348 77.2183 535.728 77.6044 536.104 77.9833 536.295 78.4885 536.295 79.1199 536.295 79.5656 536.166 80.0186 535.916 80.4793 535.672 80.9323 535.327 81.4115 534.892 81.9167 534.46 82.4143 533.962 82.9568 533.398 83.5436 533.59 83.5286 533.792 83.514 534.001 83.499 534.206 83.484 534.404 83.4767 534.589 83.4767L536.65 83.4767 536.65 84.2679 532.061 84.2679ZM538.155 84.2679 538.155 76.9581 539.269 76.9581 540.676 80.8581C540.763 81.1106 540.85 81.3669 540.93 81.627 541.021 81.8795 541.108 82.1323 541.198 82.3847L541.243 82.3847C541.33 82.1323 541.414 81.8795 541.487 81.627 541.571 81.3669 541.654 81.1106 541.745 80.8581L543.127 76.9581 544.252 76.9581 544.252 84.2679 543.381 84.2679 543.381 80.2453C543.381 79.9183 543.395 79.5583 543.427 79.1644 543.458 78.7633 543.482 78.4029 543.503 78.0836L543.462 78.0836 542.88 79.7439 541.498 83.5324 540.885 83.5324 539.506 79.7439 538.924 78.0836 538.879 78.0836C538.903 78.4029 538.924 78.7633 538.949 79.1644 538.977 79.5583 538.99 79.9183 538.99 80.2453L538.99 84.2679 538.155 84.2679ZM546.129 84.2679 546.129 83.5101 547.755 83.5101 547.755 78.273 546.463 78.273 546.463 77.6824C546.79 77.6229 547.073 77.5525 547.309 77.4707 547.557 77.3816 547.776 77.2775 547.967 77.1587L548.671 77.1587 548.671 83.5101 550.14 83.5101 550.14 84.2679 546.129 84.2679ZM553.563 84.4016C552.849 84.4016 552.289 84.0823 551.881 83.4433 551.477 82.797 551.279 81.8795 551.279 80.691 551.279 79.4949 551.477 78.585 551.881 77.961 552.289 77.337 552.849 77.025 553.563 77.025 554.267 77.025 554.82 77.337 555.224 77.961 555.632 78.585 555.837 79.4949 555.837 80.691 555.837 81.8795 555.632 82.797 555.224 83.4433 554.82 84.0823 554.267 84.4016 553.563 84.4016ZM553.563 83.6661C553.978 83.6661 554.312 83.4322 554.566 82.9641 554.817 82.4888 554.946 81.7311 554.946 80.691 554.946 79.6509 554.817 78.9043 554.566 78.4513 554.312 77.9906 553.978 77.7604 553.563 77.7604 553.145 77.7604 552.808 77.9906 552.55 78.4513 552.296 78.9043 552.17 79.6509 552.17 80.691 552.17 81.7311 552.296 82.4888 552.55 82.9641 552.808 83.4322 553.145 83.6661 553.563 83.6661ZM559.1 84.4016C558.389 84.4016 557.829 84.0823 557.418 83.4433 557.018 82.797 556.816 81.8795 556.816 80.691 556.816 79.4949 557.018 78.585 557.418 77.961 557.829 77.337 558.389 77.025 559.1 77.025 559.807 77.025 560.36 77.337 560.761 77.961 561.172 78.585 561.374 79.4949 561.374 80.691 561.374 81.8795 561.172 82.797 560.761 83.4433 560.36 84.0823 559.807 84.4016 559.1 84.4016ZM559.1 83.6661C559.518 83.6661 559.852 83.4322 560.103 82.9641 560.357 82.4888 560.482 81.7311 560.482 80.691 560.482 79.6509 560.357 78.9043 560.103 78.4513 559.852 77.9906 559.518 77.7604 559.1 77.7604 558.685 77.7604 558.348 77.9906 558.087 78.4513 557.836 78.9043 557.707 79.6509 557.707 80.691 557.707 81.7311 557.836 82.4888 558.087 82.9641 558.348 83.4322 558.685 83.6661 559.1 83.6661Z" fill="#000000" fill-rule="nonzero" fill-opacity="1" transform="scale(1 1.00165)"/><path d="M559.25 129.884 559.25 122.574 560.176 122.574 560.176 129.093 563.372 129.093 563.372 129.884 559.25 129.884ZM566.938 130.018C566.44 130.018 565.991 129.917 565.591 129.717 565.197 129.516 564.884 129.186 564.654 128.725 564.424 128.264 564.309 127.644 564.309 126.864L564.309 122.574 565.235 122.574 565.235 126.887C565.235 127.473 565.308 127.938 565.458 128.279 565.611 128.614 565.817 128.851 566.071 128.993 566.329 129.134 566.621 129.204 566.938 129.204 567.265 129.204 567.558 129.134 567.819 128.993 568.08 128.851 568.282 128.614 568.432 128.279 568.589 127.938 568.665 127.473 568.665 126.887L568.665 122.574 569.557 122.574 569.557 126.864C569.557 127.644 569.442 128.264 569.212 128.725 568.982 129.186 568.669 129.516 568.275 129.717 567.882 129.917 567.436 130.018 566.938 130.018ZM571.524 129.884 571.524 122.574 572.45 122.574 572.45 126.24 572.482 126.24 575.525 122.574 576.573 122.574 574.289 125.36 576.928 129.884 575.894 129.884 573.707 126.084 572.45 127.566 572.45 129.884 571.524 129.884ZM577.977 129.884 577.977 122.574 582.19 122.574 582.19 123.354 578.903 123.354 578.903 125.65 581.678 125.65 581.678 126.441 578.903 126.441 578.903 129.093 582.301 129.093 582.301 129.884 577.977 129.884Z" fill="#000000" fill-rule="nonzero" fill-opacity="1" transform="scale(1 1.00165)"/><path d="M294.607 114.563 294.607 107.253 296.892 107.253C297.389 107.253 297.832 107.32 298.218 107.453 298.604 107.58 298.905 107.795 299.12 108.1 299.343 108.397 299.455 108.798 299.455 109.303 299.455 109.868 299.306 110.324 299.009 110.674 298.712 111.015 298.311 111.249 297.805 111.376L299.666 114.563 298.619 114.563 296.858 111.476 295.532 111.476 295.532 114.563 294.607 114.563ZM295.532 110.718 296.758 110.718C297.33 110.718 297.768 110.603 298.073 110.373 298.378 110.135 298.53 109.778 298.53 109.303 298.53 108.82 298.378 108.482 298.073 108.289 297.768 108.096 297.33 107.999 296.758 107.999L295.532 107.999 295.532 110.718ZM302.859 114.696C302.421 114.696 302.009 114.585 301.623 114.362 301.244 114.139 300.935 113.816 300.698 113.393 300.467 112.969 300.352 112.46 300.352 111.866 300.352 111.257 300.467 110.741 300.698 110.317 300.935 109.894 301.244 109.571 301.623 109.348 302.009 109.125 302.421 109.013 302.859 109.013 303.305 109.013 303.717 109.125 304.096 109.348 304.475 109.571 304.78 109.894 305.01 110.317 305.248 110.741 305.367 111.257 305.367 111.866 305.367 112.46 305.248 112.969 305.01 113.393 304.78 113.816 304.475 114.139 304.096 114.362 303.717 114.585 303.305 114.696 302.859 114.696ZM302.859 113.939C303.327 113.939 303.702 113.749 303.985 113.37 304.275 112.984 304.419 112.483 304.419 111.866 304.419 111.242 304.275 110.737 303.985 110.351 303.702 109.964 303.327 109.771 302.859 109.771 302.399 109.771 302.024 109.964 301.734 110.351 301.444 110.737 301.299 111.242 301.299 111.866 301.299 112.483 301.444 112.984 301.734 113.37 302.024 113.749 302.399 113.939 302.859 113.939ZM306.882 114.563 306.882 107.253 309.055 107.253C309.552 107.253 309.987 107.312 310.359 107.431 310.737 107.55 311.031 107.739 311.239 107.999 311.454 108.259 311.562 108.605 311.562 109.036 311.562 109.4 311.469 109.73 311.283 110.027 311.105 110.317 310.841 110.518 310.492 110.629L310.492 110.674C310.931 110.755 311.287 110.941 311.562 111.231 311.844 111.521 311.985 111.918 311.985 112.423 311.985 112.898 311.867 113.296 311.629 113.615 311.399 113.935 311.076 114.173 310.659 114.329 310.243 114.485 309.761 114.563 309.211 114.563L306.882 114.563ZM307.807 110.362 308.888 110.362C309.512 110.362 309.961 110.254 310.236 110.039 310.511 109.823 310.648 109.53 310.648 109.158 310.648 108.735 310.503 108.434 310.214 108.256 309.931 108.077 309.504 107.988 308.932 107.988L307.807 107.988 307.807 110.362ZM307.807 113.827 309.077 113.827C309.708 113.827 310.199 113.712 310.548 113.482 310.897 113.244 311.072 112.88 311.072 112.39 311.072 111.937 310.897 111.606 310.548 111.398 310.206 111.182 309.716 111.075 309.077 111.075L307.807 111.075 307.807 113.827ZM313.433 114.563 313.433 107.253 317.645 107.253 317.645 108.033 314.357 108.033 314.357 110.328 317.132 110.328 317.132 111.119 314.357 111.119 314.357 113.771 317.756 113.771 317.756 114.563 313.433 114.563ZM319.309 114.563 319.309 107.253 321.593 107.253C322.091 107.253 322.533 107.32 322.919 107.453 323.305 107.58 323.606 107.795 323.822 108.1 324.044 108.397 324.156 108.798 324.156 109.303 324.156 109.868 324.007 110.324 323.71 110.674 323.413 111.015 323.012 111.249 322.507 111.376L324.368 114.563 323.32 114.563 321.56 111.476 320.234 111.476 320.234 114.563 319.309 114.563ZM320.234 110.718 321.459 110.718C322.031 110.718 322.47 110.603 322.774 110.373 323.079 110.135 323.231 109.778 323.231 109.303 323.231 108.82 323.079 108.482 322.774 108.289 322.47 108.096 322.031 107.999 321.459 107.999L320.234 107.999 320.234 110.718ZM327.016 114.563 327.016 108.033 324.81 108.033 324.81 107.253 330.158 107.253 330.158 108.033 327.952 108.033 327.952 114.563 327.016 114.563ZM331.817 114.696C331.364 114.696 330.985 114.563 330.681 114.295 330.384 114.02 330.235 113.641 330.235 113.159 330.235 112.564 330.499 112.111 331.026 111.799 331.561 111.48 332.404 111.257 333.556 111.131 333.556 110.9 333.522 110.681 333.455 110.473 333.396 110.265 333.284 110.098 333.121 109.972 332.965 109.838 332.738 109.771 332.441 109.771 332.129 109.771 331.836 109.831 331.561 109.949 331.286 110.068 331.041 110.202 330.826 110.351L330.469 109.715C330.721 109.552 331.03 109.396 331.394 109.247 331.765 109.091 332.167 109.013 332.597 109.013 333.258 109.013 333.738 109.218 334.035 109.626 334.332 110.027 334.48 110.566 334.48 111.242L334.48 114.563 333.723 114.563 333.645 113.916 333.611 113.916C333.359 114.124 333.08 114.306 332.776 114.462 332.478 114.618 332.159 114.696 331.817 114.696ZM332.085 113.961C332.345 113.961 332.59 113.898 332.82 113.771 333.05 113.645 333.295 113.467 333.556 113.236L333.556 111.732C332.657 111.844 332.025 112.011 331.661 112.234 331.305 112.457 331.126 112.742 331.126 113.092 331.126 113.396 331.219 113.619 331.405 113.76 331.591 113.894 331.817 113.961 332.085 113.961Z" fill="#000000" fill-rule="nonzero" fill-opacity="1" transform="scale(1 1.00165)"/><path d="M252.198 62.1159C251.559 62.1159 250.991 61.9672 250.493 61.6701 249.996 61.3655 249.606 60.9309 249.323 60.3664 249.041 59.802 248.9 59.1223 248.9 58.3273 248.9 57.54 249.045 56.8637 249.334 56.2993 249.624 55.7348 250.021 55.3003 250.527 54.9956 251.032 54.6909 251.607 54.5387 252.254 54.5387 252.759 54.5387 253.182 54.6352 253.524 54.8284 253.873 55.014 254.152 55.2184 254.36 55.4413L253.847 56.043C253.662 55.8497 253.446 55.6864 253.201 55.5527 252.956 55.419 252.648 55.3521 252.276 55.3521 251.786 55.3521 251.358 55.4747 250.995 55.7199 250.631 55.9577 250.348 56.2955 250.148 56.7339 249.954 57.1723 249.858 57.696 249.858 58.305 249.858 59.226 250.066 59.958 250.482 60.5001 250.905 61.035 251.507 61.3024 252.287 61.3024 252.547 61.3024 252.796 61.2652 253.034 61.191 253.272 61.1092 253.461 61.0016 253.602 60.8679L253.602 58.9624 252.053 58.9624 252.053 58.1936 254.449 58.1936 254.449 61.269C254.219 61.5141 253.907 61.7185 253.513 61.8819 253.127 62.0379 252.688 62.1159 252.198 62.1159ZM256.2 61.9821 256.2 54.6724 258.284 54.6724C258.834 54.6724 259.313 54.7393 259.722 54.873 260.13 55.0067 260.45 55.2334 260.68 55.5527 260.91 55.8647 261.025 56.2881 261.025 56.823 261.025 57.588 260.776 58.1563 260.279 58.5279 259.781 58.8994 259.131 59.085 258.329 59.085L257.125 59.085 257.125 61.9821 256.2 61.9821ZM257.125 58.3273 258.217 58.3273C258.856 58.3273 259.328 58.2085 259.632 57.9707 259.944 57.7256 260.1 57.3429 260.1 56.823 260.1 56.2955 259.937 55.9316 259.61 55.731 259.291 55.5231 258.812 55.419 258.173 55.419L257.125 55.419 257.125 58.3273ZM263.755 61.9821 263.755 55.4524 261.549 55.4524 261.549 54.6724 266.898 54.6724 266.898 55.4524 264.691 55.4524 264.691 61.9821 263.755 61.9821ZM266.852 59.5419 266.852 58.8399 269.414 58.8399 269.414 59.5419 266.852 59.5419ZM270.301 61.9821 270.301 61.4361C271.014 60.723 271.619 60.099 272.117 59.5641 272.615 59.022 272.994 58.5352 273.254 58.1044 273.514 57.666 273.644 57.2576 273.644 56.8787 273.644 56.4703 273.532 56.136 273.31 55.8759 273.087 55.6157 272.749 55.4859 272.296 55.4859 271.998 55.4859 271.723 55.5712 271.471 55.7421 271.218 55.9055 270.988 56.106 270.78 56.3439L270.256 55.8201C270.553 55.4932 270.869 55.2334 271.204 55.0401 271.545 54.8396 271.946 54.7393 272.407 54.7393 273.068 54.7393 273.588 54.9325 273.967 55.3187 274.346 55.6976 274.535 56.2028 274.535 56.8341 274.535 57.2799 274.409 57.7329 274.156 58.1936 273.911 58.6466 273.569 59.1257 273.131 59.631 272.7 60.1286 272.203 60.6711 271.638 61.2579 271.831 61.2429 272.032 61.2283 272.24 61.2133 272.448 61.1983 272.644 61.191 272.83 61.191L274.892 61.191 274.892 61.9821 270.301 61.9821Z" fill="#000000" fill-rule="nonzero" fill-opacity="1" transform="scale(1 1.00165)"/><path d="M478.885 52.0176C478.248 52.0176 477.677 51.869 477.182 51.5719 476.684 51.2672 476.294 50.8327 476.012 50.2682 475.727 49.7038 475.588 49.024 475.588 48.2291 475.588 47.4418 475.734 46.7655 476.023 46.2011 476.312 45.6366 476.709 45.202 477.214 44.8974 477.719 44.5927 478.297 44.4405 478.941 44.4405 479.446 44.4405 479.871 44.537 480.212 44.7302 480.56 44.9158 480.839 45.1202 481.048 45.3431L480.536 45.9448C480.348 45.7515 480.135 45.5882 479.888 45.4545 479.644 45.3208 479.334 45.2539 478.965 45.2539 478.474 45.2539 478.046 45.3765 477.684 45.6216 477.318 45.8595 477.036 46.1972 476.834 46.6356 476.643 47.074 476.545 47.5978 476.545 48.2068 476.545 49.1278 476.754 49.8598 477.168 50.4019 477.593 50.9368 478.196 51.2042 478.976 51.2042 479.233 51.2042 479.484 51.167 479.721 51.0928 479.958 51.011 480.149 50.9034 480.289 50.7696L480.289 48.8642 478.742 48.8642 478.742 48.0954 481.138 48.0954 481.138 51.1708C480.905 51.4159 480.595 51.6203 480.201 51.7836 479.815 51.9396 479.376 52.0176 478.885 52.0176ZM482.89 51.8839 482.89 44.5742 484.972 44.5742C485.522 44.5742 485.999 44.6411 486.41 44.7748 486.818 44.9085 487.138 45.1352 487.368 45.4545 487.598 45.7665 487.712 46.1899 487.712 46.7248 487.712 47.4898 487.465 48.0581 486.967 48.4296 486.469 48.8012 485.818 48.9868 485.017 48.9868L483.812 48.9868 483.812 51.8839 482.89 51.8839ZM483.812 48.2291 484.906 48.2291C485.543 48.2291 486.017 48.1103 486.32 47.8725 486.633 47.6274 486.79 47.2447 486.79 46.7248 486.79 46.1972 486.626 45.8334 486.299 45.6328 485.978 45.4249 485.498 45.3208 484.861 45.3208L483.812 45.3208 483.812 48.2291ZM490.442 51.8839 490.442 45.3542 488.235 45.3542 488.235 44.5742 493.583 44.5742 493.583 45.3542 491.379 45.3542 491.379 51.8839 490.442 51.8839ZM493.538 49.4436 493.538 48.7416 496.101 48.7416 496.101 49.4436 493.538 49.4436ZM499.172 52.0176C498.608 52.0176 498.134 51.9174 497.758 51.7168 497.379 51.5089 497.069 51.2749 496.832 51.0148L497.299 50.4131C497.515 50.6359 497.769 50.8327 498.058 51.0036 498.347 51.1746 498.702 51.2599 499.116 51.2599 499.548 51.2599 499.9 51.1412 500.175 50.9034 500.45 50.6655 500.586 50.35 500.586 49.9562 500.586 49.6738 500.513 49.4287 500.363 49.2208 500.224 49.0052 499.987 48.8381 499.653 48.7194 499.325 48.6006 498.88 48.5411 498.316 48.5411L498.316 47.8391C498.82 47.8391 499.217 47.7795 499.506 47.6608 499.802 47.542 500.015 47.3822 500.14 47.1816 500.269 46.9811 500.332 46.7582 500.332 46.5131 500.332 46.1638 500.22 45.8891 499.997 45.6885 499.782 45.4879 499.486 45.3876 499.106 45.3876 498.81 45.3876 498.535 45.4545 498.281 45.5882 498.037 45.7219 497.807 45.8964 497.591 46.1119L497.1 45.5325C497.375 45.2724 497.678 45.0607 498.013 44.8974 498.347 44.7264 498.723 44.6411 499.137 44.6411 499.757 44.6411 500.266 44.8009 500.666 45.1202 501.066 45.4322 501.268 45.8741 501.268 46.4462 501.268 46.877 501.15 47.23 500.91 47.5048 500.673 47.7795 500.36 47.9912 499.973 48.1399L499.973 48.1845C500.405 48.281 500.77 48.4854 501.066 48.7974 501.362 49.102 501.512 49.4994 501.512 49.9896 501.512 50.4058 501.408 50.7658 501.199 51.0705 500.993 51.3752 500.711 51.6092 500.353 51.7725 500.004 51.9358 499.611 52.0176 499.172 52.0176Z" fill="#000000" fill-rule="nonzero" fill-opacity="1" transform="scale(1 1.00165)"/><path d="M362.735 48.75 362.735 42.2203 360.527 42.2203 360.527 41.4403 365.876 41.4403 365.876 42.2203 363.672 42.2203 363.672 48.75 362.735 48.75ZM368.797 48.8837C368.233 48.8837 367.767 48.7834 367.394 48.5829 367.021 48.3823 366.715 48.1594 366.471 47.9143L366.917 47.3126C367.129 47.5205 367.38 47.7099 367.662 47.8809 367.944 48.0442 368.292 48.126 368.71 48.126 369.149 48.126 369.515 47.9811 369.814 47.6914 370.117 47.3944 370.27 46.9967 370.27 46.4991 370.27 46.0089 370.131 45.6262 369.856 45.3514 369.581 45.0767 369.215 44.9391 368.755 44.9391 368.508 44.9391 368.296 44.9764 368.118 45.0506 367.948 45.1247 367.756 45.2327 367.54 45.3737L367.049 45.0617 367.283 41.6409 370.838 41.6409 370.838 42.432 368.087 42.432 367.895 44.538C368.066 44.4489 368.237 44.3782 368.407 44.3263 368.578 44.2744 368.773 44.2483 368.989 44.2483 369.396 44.2483 369.765 44.3301 370.093 44.4934 370.427 44.6494 370.692 44.8907 370.893 45.2177 371.095 45.5447 371.193 45.9643 371.193 46.4769 371.193 46.9894 371.078 47.4278 370.848 47.7917 370.625 48.1483 370.333 48.4195 369.967 48.6051 369.605 48.7907 369.215 48.8837 368.797 48.8837Z" fill="#000000" fill-rule="nonzero" fill-opacity="1" transform="scale(1 1.00165)"/></g></svg>